<?xml version="1.0" standalone="no"?>
<!DOCTYPE svg PUBLIC "-//W3C//DTD SVG 20010904//EN"
 "http://www.w3.org/TR/2001/REC-SVG-20010904/DTD/svg10.dtd">
<svg version="1.0" xmlns="http://www.w3.org/2000/svg"
 width="1024.000000pt" height="1024.000000pt" viewBox="0 0 1024.000000 1024.000000"
 preserveAspectRatio="xMidYMid meet">

<g transform="translate(0.000000,1024.000000) scale(0.100000,-0.100000)"
fill="#000000" stroke="none">
<path d="M3470 9201 c-101 -19 -251 -145 -382 -318 -38 -51 -74 -96 -81 -100
-7 -4 -55 -6 -107 -4 -209 6 -514 -67 -695 -168 l-50 -28 -120 45 c-66 24
-212 76 -325 115 -195 68 -209 71 -297 72 -105 0 -131 -13 -170 -81 -19 -32
-23 -55 -23 -123 0 -46 5 -102 11 -125 28 -107 56 -197 119 -382 38 -111 92
-280 121 -375 l52 -174 -12 -95 c-16 -132 -14 -185 9 -275 11 -43 20 -111 20
-151 0 -88 27 -179 74 -254 57 -90 61 -98 50 -128 -9 -24 -17 -28 -94 -43
-119 -22 -275 -67 -337 -97 -48 -23 -62 -39 -48 -54 3 -3 65 9 138 28 73 18
157 36 187 39 30 4 70 8 89 11 29 4 32 2 26 -13 -4 -10 -10 -51 -14 -90 -4
-40 -11 -77 -16 -81 -6 -5 -69 -48 -142 -96 -118 -77 -163 -115 -163 -138 0
-17 23 -6 117 56 112 73 170 103 180 92 4 -3 -43 -57 -104 -119 -101 -102
-148 -162 -166 -210 -11 -29 8 -13 141 117 67 67 126 122 132 124 15 5 24 -49
12 -77 -6 -14 -22 -54 -36 -88 -46 -109 -44 -310 4 -450 27 -76 16 -112 -67
-232 -81 -117 -95 -151 -94 -238 0 -84 21 -168 73 -287 17 -38 41 -121 54
-185 33 -159 57 -242 168 -568 53 -156 96 -287 96 -292 0 -18 -86 -61 -161
-79 -97 -25 -125 -40 -197 -109 -51 -49 -62 -66 -71 -109 -13 -64 -1 -113 39
-157 l28 -32 174 -3 c95 -1 216 -5 268 -9 69 -4 111 -2 150 9 66 17 498 17
595 -1 81 -15 136 -14 241 4 49 9 116 18 149 21 33 3 65 10 70 15 14 15 -17
35 -65 43 -36 6 -40 10 -50 47 -6 23 -21 57 -33 75 -21 33 -205 174 -227 174
-23 0 -91 42 -154 95 -48 41 -68 66 -76 93 -5 20 -10 114 -10 207 0 154 3 182
31 300 50 217 59 276 59 385 -1 120 -17 221 -54 333 l-26 79 51 61 c29 34 63
83 77 108 l26 45 68 -51 c174 -131 464 -242 644 -246 30 -1 60 -7 65 -13 5 -6
27 -35 49 -64 79 -102 199 -167 338 -183 90 -10 95 -12 125 -47 58 -66 81 -85
153 -118 88 -41 172 -52 318 -42 92 6 113 5 140 -10 39 -21 242 -29 340 -14
l67 11 44 -34 c52 -39 97 -55 270 -94 167 -38 265 -51 374 -51 l88 0 29 -93
c28 -87 29 -101 28 -267 -1 -210 -4 -220 -89 -268 -32 -18 -80 -52 -105 -76
-32 -30 -58 -45 -86 -49 -43 -7 -174 -98 -212 -148 -22 -29 -42 -83 -42 -116
0 -33 26 -80 53 -95 23 -13 310 -22 682 -21 192 1 233 1 270 2 22 1 78 1 125
0 113 -3 171 7 215 37 38 25 38 25 168 9 15 -2 27 1 27 7 0 7 4 7 13 0 12 -11
256 -2 402 14 33 4 544 10 1135 14 591 4 1084 10 1095 13 11 3 32 6 46 6 14 1
34 7 45 15 27 20 7 37 -45 38 -22 0 -41 2 -41 3 0 2 19 40 42 84 58 112 57
162 -9 304 l-48 102 0 160 c1 133 5 175 24 250 14 56 23 121 23 173 1 75 -2
88 -36 156 -53 108 -137 167 -286 201 -171 38 -257 75 -357 151 -18 14 -75 75
-126 137 -188 225 -314 315 -516 367 -24 6 -130 12 -235 14 -226 2 -230 3
-345 110 -108 101 -155 137 -246 189 -102 58 -215 103 -324 128 -148 34 -178
47 -201 84 -12 19 -66 77 -121 129 l-101 96 56 112 c77 156 114 305 120 481 5
139 -5 262 -28 343 -76 274 -82 302 -90 444 -8 142 44 284 158 426 118 149
232 225 419 279 108 31 153 53 196 97 57 57 76 104 76 188 0 114 -19 165 -84
230 -90 89 -205 119 -383 100 -184 -20 -333 -81 -495 -204 -242 -184 -414
-431 -492 -712 -42 -148 -54 -260 -48 -429 5 -148 28 -252 108 -505 31 -95 34
-116 34 -227 l0 -121 -40 -59 c-22 -32 -46 -58 -54 -58 -8 0 -29 40 -50 95
-68 176 -241 402 -386 505 -119 85 -245 132 -407 152 -26 3 -108 -2 -181 -12
l-134 -17 -135 70 c-75 39 -168 80 -207 92 -78 24 -75 21 -85 117 -3 29 -15
85 -27 125 -17 58 -22 104 -24 218 -2 119 -7 159 -27 225 -30 101 -84 198
-157 283 -31 37 -65 90 -75 117 -27 74 -101 207 -154 277 -25 34 -83 99 -129
144 -124 124 -263 185 -373 165z m150 -156 c113 -57 256 -212 330 -359 73
-146 182 -629 157 -696 -7 -20 -19 -150 -13 -150 10 0 38 100 44 160 4 36 7
133 7 217 0 84 3 149 7 145 4 -4 18 -31 33 -60 36 -72 52 -204 36 -298 -13
-79 -14 -85 -10 -137 4 -58 -62 -177 -141 -258 -78 -78 -116 -100 -325 -190
-150 -64 -158 -69 -131 -78 43 -17 182 -13 283 8 163 34 277 115 345 246 18
36 36 65 40 65 11 0 22 -88 22 -181 0 -104 -10 -124 -131 -246 -82 -83 -177
-141 -301 -184 -71 -25 -262 -69 -296 -69 -49 0 -26 -19 52 -43 65 -21 93 -24
182 -22 153 4 273 46 365 127 50 43 46 16 -12 -95 -52 -99 -162 -225 -242
-279 -25 -17 -76 -61 -112 -97 -80 -81 -225 -166 -267 -158 -15 3 -97 26 -182
51 -85 25 -193 53 -240 61 -93 16 -250 20 -250 6 0 -19 57 -44 153 -67 150
-36 318 -81 352 -94 l30 -12 -47 -24 c-25 -13 -76 -35 -112 -48 l-66 -25 -45
39 c-24 21 -95 63 -158 94 -177 87 -192 74 -51 -44 49 -41 100 -87 112 -102
l23 -27 -48 -24 c-26 -14 -84 -37 -128 -52 -139 -48 -320 -33 -417 36 -36 26
-35 48 2 84 l30 29 48 -23 c26 -13 70 -30 97 -37 94 -26 246 -12 259 22 3 8 4
14 3 14 -50 0 -273 62 -327 91 -112 60 -113 95 -5 202 61 60 74 79 80 115 5
32 3 49 -9 67 -22 34 -39 31 -58 -8 l-16 -34 -109 -7 c-59 -3 -134 -9 -165
-12 -44 -4 -58 -2 -59 8 -3 43 5 106 20 159 15 54 15 70 4 137 -37 218 -110
374 -196 418 -47 25 -137 22 -181 -5 -67 -42 -112 -120 -126 -221 -34 -239
193 -465 385 -384 20 8 39 13 41 11 2 -2 -3 -26 -11 -53 -30 -100 -14 -153 63
-205 78 -54 182 -139 182 -150 0 -43 -81 -125 -134 -134 -41 -8 -97 8 -120 34
-16 17 -15 19 9 35 14 9 25 23 25 31 0 19 -1 19 -51 -2 l-42 -16 -24 27 c-30
35 -29 42 6 60 62 33 37 56 -60 56 -39 0 -69 20 -69 46 0 10 12 14 39 14 22 0
52 5 68 11 l28 11 -27 14 c-15 8 -64 23 -109 34 -92 22 -115 38 -185 136 -83
116 -119 224 -94 284 7 17 16 30 21 30 18 0 8 42 -17 75 -60 80 -69 213 -29
458 25 155 46 240 71 290 14 27 34 37 34 16 0 -18 75 -121 139 -190 l61 -67
-16 -30 c-13 -27 -13 -35 -1 -64 21 -49 49 -70 88 -66 67 6 73 96 11 151 -15
12 -40 41 -57 64 -31 42 -131 160 -190 225 l-34 37 30 60 c17 33 58 89 92 124
34 35 99 105 144 154 114 126 212 190 385 253 89 32 172 55 237 65 114 17 234
20 260 5 17 -8 16 -13 -10 -67 -29 -57 -49 -139 -49 -194 0 -22 5 -29 19 -29
28 0 67 52 140 187 86 157 141 242 216 333 170 204 266 249 395 185z m3617
-244 c64 -33 86 -64 91 -129 7 -97 -43 -170 -132 -192 -173 -45 -339 -144
-472 -282 -115 -120 -182 -242 -220 -404 -24 -104 -14 -294 24 -449 71 -285
86 -395 72 -528 -15 -150 -53 -278 -111 -381 -28 -50 -53 -93 -55 -95 -1 -1
-35 10 -75 25 -58 24 -87 43 -150 105 l-78 76 40 57 c67 94 84 152 83 286 -1
83 -7 134 -22 185 -11 39 -40 140 -65 225 -81 278 -85 415 -22 667 111 442
457 794 835 852 94 14 211 6 257 -18z m-5617 -154 c119 -39 254 -93 343 -139
l61 -30 -60 -57 c-32 -31 -73 -73 -90 -94 l-31 -38 -35 54 c-62 94 -143 172
-216 210 -116 61 -192 67 -192 14 0 -39 37 -85 92 -114 30 -15 46 -28 38 -30
-9 -2 -20 -23 -26 -49 -10 -43 -10 -45 15 -50 14 -3 49 -13 76 -22 l50 -17
-50 -3 c-48 -3 -85 -23 -85 -46 0 -7 19 -17 43 -24 23 -7 60 -25 82 -39 22
-14 31 -22 20 -19 -10 4 -38 10 -62 13 -39 5 -43 3 -55 -22 -12 -26 -10 -29
27 -59 21 -17 48 -38 59 -47 32 -26 10 -43 -25 -19 l-29 21 0 -20 c0 -12 9
-30 20 -41 20 -20 20 -22 4 -87 l-17 -66 -57 164 c-31 90 -71 203 -88 250 -72
199 -100 379 -66 428 16 22 22 23 83 18 36 -3 113 -21 171 -40z m2921 -1268
c68 -29 165 -84 202 -113 18 -14 18 -16 -2 -71 -12 -31 -21 -67 -21 -81 0 -25
0 -24 53 14 118 88 192 119 306 128 188 15 401 -74 558 -232 119 -121 224
-336 253 -520 15 -90 13 -287 -4 -402 -7 -51 -15 -95 -18 -98 -3 -3 -33 4 -66
15 -33 11 -113 30 -178 41 -183 32 -396 79 -466 101 -35 12 -124 51 -198 88
-162 80 -220 104 -220 91 0 -15 88 -97 142 -132 27 -17 46 -33 44 -35 -1 -2
-84 13 -182 32 -98 19 -212 38 -251 42 -69 6 -73 5 -73 -14 0 -29 14 -37 110
-62 47 -13 112 -34 144 -47 33 -13 108 -36 168 -50 137 -34 158 -49 158 -114
0 -27 7 -78 15 -114 l15 -65 -32 -47 c-44 -63 -79 -126 -75 -137 5 -15 47 30
47 51 0 28 40 93 52 86 6 -4 8 -26 5 -50 -5 -51 -75 -151 -159 -230 -190 -179
-506 -271 -753 -219 -212 44 -409 218 -520 459 -28 59 -35 87 -35 135 0 125
64 223 190 290 77 41 101 39 223 -19 49 -22 98 -40 109 -38 18 3 17 6 -14 41
-18 21 -66 55 -106 76 l-74 38 44 25 c23 14 77 42 118 63 270 135 561 417 655
633 17 39 17 44 2 59 -14 15 -18 14 -45 -3 -16 -10 -76 -71 -134 -134 -111
-122 -221 -224 -303 -282 -54 -38 -196 -118 -210 -118 -16 0 60 71 95 90 73
38 195 158 178 175 -2 2 -25 -17 -52 -41 -26 -25 -51 -43 -54 -40 -3 3 -11 -3
-19 -14 -8 -11 -23 -25 -34 -31 -19 -10 -20 -9 -8 12 6 12 33 53 60 91 113
158 226 441 236 588 8 139 10 140 124 89z m-2477 -121 c22 -30 20 -60 -4 -86
-40 -42 -100 -22 -115 40 -15 58 84 96 119 46z m-152 -270 c9 -13 39 -36 68
-52 44 -24 60 -28 103 -23 29 3 63 9 77 12 l25 8 -27 -28 c-37 -39 -117 -46
-174 -17 -75 39 -125 118 -123 196 0 28 2 25 18 -21 10 -28 25 -62 33 -75z
m-103 -489 c27 -37 24 -50 -23 -77 l-36 -21 0 64 c0 56 2 65 18 65 10 0 28
-14 41 -31z m4294 -119 c127 -141 163 -235 192 -495 9 -77 20 -157 26 -177 17
-66 105 -181 219 -290 69 -66 116 -119 126 -144 35 -83 8 -291 -46 -356 -19
-23 -19 -23 -20 -1 -1 59 -43 224 -74 290 -57 120 -143 230 -163 209 -3 -3 2
-27 11 -53 106 -298 129 -410 120 -603 -6 -140 -14 -204 -49 -369 -14 -63 -23
-116 -21 -119 6 -6 101 176 136 261 18 43 34 76 36 74 3 -2 -3 -51 -11 -108
-18 -121 -72 -334 -116 -458 -41 -117 -99 -324 -99 -355 0 -20 -6 -27 -27 -32
-16 -4 -40 -13 -54 -22 -25 -14 -29 -13 -79 22 -29 20 -60 36 -69 37 -37 2
-78 -4 -110 -17 -47 -20 -53 -18 -78 20 l-22 34 67 4 c37 2 105 -3 151 -10 46
-7 86 -10 89 -7 11 11 -31 44 -90 70 -80 36 -163 33 -223 -8 -48 -33 -53 -25
-31 59 22 89 30 248 16 340 -6 43 -34 158 -62 254 -70 245 -76 394 -20 533 14
37 16 38 29 21 7 -10 13 -33 13 -52 0 -19 9 -71 20 -116 17 -74 68 -352 90
-502 5 -33 14 -72 19 -85 l9 -24 10 25 c17 44 26 180 27 385 0 201 9 307 46
530 26 165 25 280 -5 269 -6 -2 -18 16 -28 44 -25 69 -88 163 -136 201 -23 18
-42 28 -42 21 0 -6 16 -52 37 -103 32 -81 37 -105 40 -197 5 -125 -5 -151 -59
-164 -104 -26 -286 47 -441 178 -53 45 -176 205 -212 276 -31 62 -85 237 -85
277 0 40 -12 40 271 14 197 -18 210 -21 280 -54 41 -20 99 -54 129 -76 74 -55
144 -91 176 -91 25 0 26 2 20 38 -17 99 -18 259 -1 387 9 72 15 161 13 198 -1
37 0 67 4 67 3 0 26 -23 51 -50z m-4186 -25 l28 -25 -95 -89 -95 -89 -12 42
c-19 63 -16 89 15 119 24 23 104 66 124 67 4 0 20 -11 35 -25z m110 -121 c18
-14 33 -31 33 -39 0 -8 -15 -40 -33 -72 -19 -32 -44 -87 -57 -122 l-24 -64
-62 66 -63 66 36 -67 c47 -86 64 -107 75 -90 5 9 8 6 8 -9 0 -58 -50 -29 -116
67 -27 40 -44 74 -40 82 30 58 64 99 127 148 41 32 76 59 78 59 2 1 19 -10 38
-25z m4396 -61 c131 -67 277 -230 277 -309 0 -26 0 -26 59 -19 45 5 79 2 141
-14 139 -36 177 -64 230 -171 13 -24 40 -67 60 -95 85 -113 130 -241 130 -367
0 -154 -37 -258 -112 -318 -40 -33 -196 -114 -252 -132 -17 -6 -68 -13 -114
-17 l-83 -6 3 24 c3 26 -1 25 119 35 36 3 90 14 120 25 69 26 186 105 228 154
40 45 32 48 -16 7 -18 -16 -38 -30 -44 -30 -6 0 -30 -14 -55 -31 -61 -42 -99
-56 -173 -63 -36 -4 -69 -10 -75 -14 -15 -9 -96 -9 -96 0 0 4 14 74 31 155 24
115 30 164 27 224 -7 110 -31 152 -173 299 -169 174 -193 221 -225 433 -11 71
-27 153 -35 180 -23 76 -22 76 28 50z m-4210 -35 c26 -6 47 -15 47 -19 0 -22
-176 -139 -209 -139 -5 0 8 34 30 76 21 41 39 82 39 91 0 11 6 14 23 9 12 -4
43 -12 70 -18z m483 -145 c85 -4 129 -2 190 12 123 27 221 11 368 -61 86 -42
126 -93 210 -269 82 -170 133 -249 226 -347 60 -62 60 -63 39 -79 -55 -41
-205 -70 -319 -62 -149 10 -351 67 -480 134 -139 72 -306 213 -386 325 -71 99
-136 245 -142 320 -7 98 -7 98 95 63 70 -24 111 -32 199 -36z m-951 -130 c33
-77 38 -100 42 -183 2 -52 6 -106 9 -118 4 -21 7 -22 21 -10 9 7 24 27 35 43
l18 30 0 -27 c0 -15 -12 -72 -26 -125 -18 -71 -25 -125 -26 -193 -1 -118 19
-177 97 -294 91 -138 163 -337 204 -571 11 -60 25 -137 31 -170 6 -33 13 -71
17 -85 15 -61 25 59 28 345 3 234 7 316 20 372 16 72 17 72 72 104 l56 32 23
-26 c32 -38 45 -112 45 -268 0 -102 -6 -162 -21 -236 -45 -209 -60 -341 -56
-498 4 -187 17 -245 65 -286 52 -44 189 -133 242 -156 61 -27 179 -105 179
-119 0 -6 -9 -19 -21 -30 -17 -15 -36 -19 -93 -19 -64 0 -78 4 -117 30 -66 45
-74 46 -142 25 -75 -24 -186 -35 -207 -21 -13 9 -12 13 8 27 13 9 35 27 50 41
30 28 22 27 -53 -1 -22 -8 -65 -15 -96 -16 -49 0 -62 -5 -109 -40 -58 -43
-118 -65 -151 -55 -25 8 -59 44 -59 63 0 21 119 140 168 169 41 24 47 25 90
14 88 -23 111 -25 118 -7 4 10 -1 26 -12 38 -25 28 -111 68 -149 69 -60 2 67
29 138 29 37 0 67 4 67 8 0 21 -43 44 -102 54 -56 9 -70 8 -123 -11 -33 -12
-67 -24 -76 -27 -18 -6 -22 1 -72 161 -19 61 -56 166 -82 235 -82 217 -127
345 -116 335 5 -5 31 -51 58 -101 28 -50 58 -102 67 -115 18 -24 18 -24 12 21
-4 25 -31 108 -60 185 -83 216 -90 254 -91 507 0 119 -4 221 -9 225 -12 12
-44 -37 -61 -91 -8 -27 -15 -85 -15 -128 0 -81 -8 -96 -29 -51 -48 106 -21
232 68 317 19 18 31 24 31 16 0 -8 16 12 35 44 42 70 44 102 14 243 -34 160
-38 185 -38 250 -1 62 23 148 39 138 4 -2 24 -44 45 -92z m565 -46 c18 -45 50
-116 71 -159 31 -61 35 -77 24 -82 -22 -8 -18 -28 4 -21 14 4 27 -5 50 -34 36
-46 39 -77 10 -132 -86 -169 -193 -262 -332 -290 -51 -11 -60 -10 -104 12 -96
48 -127 134 -121 337 4 127 7 143 38 221 37 96 85 151 165 191 56 27 134 50
152 43 6 -2 26 -41 43 -86z m4999 -154 c20 -15 85 -72 146 -127 60 -54 142
-121 180 -148 75 -54 215 -128 240 -128 26 0 16 29 -26 75 l-41 44 27 7 c44
11 225 -7 305 -30 159 -46 227 -100 493 -388 153 -166 258 -221 487 -254 108
-15 182 -74 201 -160 10 -44 8 -68 -16 -189 -22 -111 -27 -167 -27 -276 0
-166 12 -229 63 -334 60 -122 52 -160 -47 -230 -76 -55 -113 -59 -143 -16 -36
50 -28 83 33 137 30 26 52 54 49 61 -3 7 -20 15 -39 19 -90 17 -188 -127 -150
-218 5 -11 1 -20 -14 -28 -31 -17 -62 -5 -84 30 -34 58 -1 132 75 170 61 32
47 70 -27 70 -36 0 -47 -5 -75 -37 -17 -21 -45 -58 -61 -83 -25 -40 -28 -51
-22 -94 7 -52 -2 -66 -42 -66 -25 0 -74 52 -74 80 0 26 33 92 56 111 9 8 35
23 58 34 22 11 42 27 44 36 9 49 -81 65 -149 27 -21 -12 -41 -19 -44 -17 -2 3
4 23 15 44 11 22 20 44 20 50 0 12 83 35 123 35 l21 0 -21 15 c-37 26 -66 25
-97 -4 l-29 -26 7 34 c3 18 6 43 6 55 0 18 6 21 48 23 26 1 68 11 92 21 l45
20 -60 2 c-132 4 -135 5 -135 48 0 19 5 22 35 22 50 0 165 23 165 33 0 5 -10
8 -22 7 -13 -1 -58 -2 -100 -1 l-78 1 0 30 0 30 58 -1 c35 -1 70 5 87 14 l29
15 -60 6 c-32 3 -68 5 -79 4 -71 -4 -57 16 21 31 70 13 131 39 153 65 11 13
11 16 0 20 -8 2 -48 14 -89 27 -41 12 -124 48 -185 80 -239 124 -389 172 -672
209 -92 13 -123 29 -60 31 17 1 46 3 62 4 26 2 93 -6 170 -19 71 -13 245 -66
310 -96 11 -5 49 -22 85 -38 36 -16 72 -35 80 -43 45 -44 228 -117 218 -87 -3
7 -159 77 -175 78 -2 0 -3 7 -3 15 0 9 -6 12 -15 9 -8 -4 -15 -1 -15 5 0 6 -4
11 -10 11 -5 0 -18 7 -27 15 -10 8 -22 16 -28 16 -5 1 -16 10 -23 21 -9 12
-20 17 -32 13 -11 -3 -20 0 -24 10 -3 9 -10 14 -15 10 -5 -3 -12 -1 -16 5 -4
6 -11 8 -16 5 -5 -4 -9 -2 -9 4 0 11 -47 27 -67 23 -7 -2 -13 1 -13 6 0 9 -16
14 -87 26 -12 2 -36 7 -55 12 -18 4 -40 8 -48 9 -8 1 -26 7 -40 12 -14 6 -37
10 -52 9 -16 -1 -28 2 -28 7 0 5 -11 7 -25 5 -37 -8 -18 19 62 85 128 105 167
157 116 157 -8 0 -54 -19 -102 -41 -47 -23 -126 -59 -176 -81 -49 -21 -119
-56 -156 -78 -106 -65 -170 -83 -264 -77 -79 5 -209 39 -220 57 -3 5 8 16 24
25 37 19 45 19 37 0 -3 -8 -3 -15 0 -15 3 0 12 7 20 15 14 13 14 15 0 15 -23
0 -20 12 14 67 23 38 35 77 51 164 25 144 19 255 -22 384 -26 83 -48 126 -122
243 -32 49 -27 52 22 15z m-2060 -288 c24 -31 41 -65 41 -81 0 -40 -50 -81
-118 -95 -54 -11 -59 -10 -103 15 -26 14 -49 26 -52 26 -2 0 -7 -22 -11 -49
-28 -211 -231 -324 -506 -281 -115 18 -194 61 -226 121 -22 44 -13 59 38 59
75 0 273 38 355 68 44 16 110 48 146 70 37 22 84 43 104 47 40 7 138 63 213
119 25 19 52 35 61 35 9 1 35 -24 58 -54z m279 -236 c70 -52 54 -65 -98 -79
-8 -1 -1 -6 15 -11 17 -5 39 -6 50 -2 11 4 24 6 28 5 5 -1 28 11 52 27 25 17
47 26 49 22 16 -25 -91 -101 -141 -101 -15 1 -39 7 -53 15 -46 26 -57 20 -65
-37 -30 -215 -256 -312 -509 -218 -63 24 -88 47 -65 61 8 5 24 9 36 9 72 0
201 80 245 150 28 45 32 48 91 58 40 6 108 32 187 70 69 33 127 61 131 61 3 1
24 -13 47 -30z m-1539 -39 c57 -15 100 -47 118 -86 18 -36 18 -36 -9 -59 -67
-58 -251 -56 -370 3 -61 30 -127 86 -116 98 3 3 38 10 76 15 39 5 101 18 139
29 68 19 94 19 162 0z m1613 -410 c-55 -73 -210 -108 -384 -86 -32 4 -58 11
-58 15 0 5 30 18 68 31 118 39 181 81 234 158 25 36 34 42 66 42 20 1 48 7 62
15 l25 13 3 -81 c2 -67 0 -86 -16 -107z m-1242 134 c30 -14 90 -31 133 -37 42
-6 77 -14 77 -18 0 -4 -26 -18 -57 -30 -48 -19 -78 -23 -178 -23 -111 -1 -124
1 -171 26 -27 14 -56 33 -63 42 -11 13 -9 16 16 22 15 3 51 14 78 24 68 26
100 24 165 -6z m370 -129 c24 -14 24 -14 -22 -15 -36 0 -48 4 -48 15 0 19 37
19 70 0z m2558 -114 c117 -30 247 -44 344 -38 57 4 104 1 140 -8 29 -7 112
-21 184 -29 156 -19 160 -20 179 -57 21 -40 18 -101 -10 -204 -46 -163 -56
-226 -54 -321 2 -82 7 -100 38 -165 45 -94 49 -164 11 -204 -38 -41 -98 -67
-166 -73 -56 -4 -63 -2 -78 19 -36 52 -17 96 70 160 30 22 54 44 54 50 0 5
-15 16 -32 23 -42 18 -210 40 -239 33 -12 -3 -44 -1 -70 4 -34 8 -54 7 -69 -1
-31 -17 -34 -7 -16 42 l17 43 97 3 c161 6 186 17 58 27 -80 5 -115 4 -129 -4
-10 -7 -20 -11 -21 -9 -1 2 -1 24 2 51 l4 47 82 1 c44 1 86 2 91 4 6 1 17 3
25 3 23 3 -1 20 -35 26 -16 2 -58 5 -91 5 -58 1 -62 3 -68 27 -4 15 -6 28 -4
30 2 1 33 3 68 4 81 2 162 11 156 18 -6 5 -45 10 -136 18 -86 7 -90 9 -90 41
0 28 1 28 58 26 31 -1 73 2 92 6 l35 7 -45 9 c-25 5 -50 9 -57 9 -27 2 -24 17
8 30 126 53 135 58 114 66 -11 4 -54 13 -95 19 -49 8 -109 28 -175 58 -123 56
-151 66 -293 104 -69 18 -154 33 -215 37 l-102 6 65 12 c97 17 193 11 285 -19
157 -51 221 -75 281 -106 33 -17 89 -38 125 -46 35 -9 72 -19 83 -22 12 -3 16
-1 12 6 -4 6 -14 11 -22 11 -8 0 -31 7 -52 16 -20 10 -41 18 -47 18 -25 3 -55
18 -55 27 0 6 -9 7 -20 4 -14 -5 -20 -2 -20 10 0 9 -4 13 -10 10 -5 -3 -10 -1
-10 5 0 6 -4 8 -10 5 -5 -3 -10 -2 -10 2 0 5 -26 17 -57 28 -32 10 -62 21 -68
24 -5 3 -14 6 -20 7 -5 1 -29 9 -52 17 -22 9 -44 13 -47 10 -3 -4 -6 -1 -6 6
0 8 -6 11 -16 7 -8 -3 -12 -2 -9 4 3 6 -2 10 -12 10 -10 1 -31 7 -48 15 l-30
13 28 1 c16 1 63 -8 105 -18z m1117 -183 c39 -17 82 -39 98 -50 61 -43 79
-122 77 -346 -1 -198 -7 -217 -82 -266 -60 -38 -78 -57 -103 -105 -21 -42 -17
-132 8 -159 10 -10 14 -22 10 -25 -9 -10 -206 -9 -201 1 55 108 62 130 63 192
0 55 -6 77 -37 144 -33 68 -38 87 -38 150 0 78 13 145 54 281 15 50 30 120 33
158 7 78 -1 76 118 25z m-1165 -58 c102 -28 155 -53 174 -83 45 -68 62 -195
45 -335 -13 -111 -30 -138 -107 -173 -77 -35 -98 -51 -122 -99 -27 -54 -32
-101 -16 -154 l14 -47 -26 -11 c-15 -5 -110 -14 -212 -19 -102 -5 -214 -13
-250 -19 -36 -5 -79 -10 -95 -10 -29 0 -31 2 -42 61 -8 41 -25 80 -52 121 -22
33 -43 75 -47 93 -7 37 19 136 77 295 20 58 47 137 58 175 11 39 30 105 42
147 l22 77 51 3 c28 2 130 3 226 2 150 0 187 -4 260 -24z m-1320 -616 c0 -2
-14 -4 -31 -4 -16 0 -28 4 -25 9 5 8 56 3 56 -5z m1874 -95 c-22 -45 -25 -62
-21 -107 5 -50 4 -53 -15 -50 -29 4 -61 51 -61 88 0 17 9 43 20 58 24 32 97
84 101 72 2 -5 -9 -32 -24 -61z m-124 52 c0 -6 -5 -13 -10 -16 -32 -20 -65
-128 -47 -156 9 -15 8 -22 -6 -36 -16 -16 -20 -16 -45 -3 -15 9 -33 29 -41 45
-13 26 -12 33 9 73 17 31 39 52 74 73 55 31 66 34 66 20z m-1894 -33 c-68 -86
-118 -171 -123 -211 -7 -50 -15 -57 -70 -57 -47 0 -79 30 -63 59 21 38 123
158 158 185 77 59 139 74 98 24z m1686 0 c-26 -28 -41 -67 -44 -113 -2 -37
-12 -45 -22 -19 -17 45 -1 95 42 131 35 30 52 30 24 1z m1188 7 c0 -4 -7 -20
-16 -37 -12 -23 -15 -46 -11 -80 6 -45 4 -50 -18 -60 -29 -13 -69 9 -87 48
-15 32 11 85 56 114 29 18 76 27 76 15z m-6760 -27 c0 -7 -16 -23 -36 -36 -49
-32 -116 -137 -112 -177 3 -26 -1 -30 -24 -33 -36 -4 -68 14 -68 39 0 45 69
143 133 190 42 30 107 40 107 17z m4271 -47 c45 -48 74 -126 60 -163 -12 -31
-52 -58 -86 -58 -37 0 -89 53 -81 83 4 12 9 43 13 68 5 41 3 48 -16 58 -11 7
-21 16 -21 20 0 8 53 26 84 30 5 1 26 -17 47 -38z m-192 16 c8 -10 7 -17 -1
-25 -6 -6 -14 -44 -17 -84 -6 -68 -8 -74 -40 -95 -67 -46 -162 -20 -148 40 8
29 83 148 105 165 21 16 87 16 101 -1z m456 -81 c50 -67 55 -76 44 -99 -20
-43 -77 -59 -116 -32 -17 12 -21 22 -16 49 4 26 -2 46 -23 85 -32 57 -27 71
28 71 23 0 38 -14 83 -74z m-4840 -8 c-19 -36 -35 -79 -35 -96 0 -38 -26 -44
-55 -12 -20 22 -17 32 27 100 27 42 84 87 96 76 2 -2 -13 -33 -33 -68z m3836
-58 c-13 -40 -20 -50 -35 -48 -33 5 -30 27 9 63 20 19 38 35 39 35 1 0 -5 -23
-13 -50z"/>
<path d="M3468 8960 c-51 -27 -139 -120 -172 -181 -24 -44 -49 -109 -42 -109
1 0 23 19 49 43 26 23 70 55 99 71 l53 29 -58 -57 c-43 -41 -68 -78 -97 -138
-43 -92 -73 -196 -68 -237 3 -23 8 -18 45 44 23 39 51 84 63 100 l21 30 -7
-30 c-4 -16 -13 -48 -21 -70 -16 -45 -30 -185 -19 -185 5 0 31 20 60 44 50 44
103 72 114 61 3 -3 -2 -13 -10 -22 -28 -32 -58 -102 -65 -150 -8 -56 -5 -56
93 16 48 34 83 52 114 57 l45 7 -42 -45 c-45 -50 -77 -105 -87 -155 -10 -42 4
-47 45 -17 56 42 109 65 140 62 l29 -3 -24 -36 c-27 -39 -50 -114 -42 -135 4
-11 14 -10 51 6 26 11 56 20 67 20 18 0 20 -4 14 -32 -3 -18 -20 -63 -38 -100
-44 -96 -29 -108 51 -39 73 63 93 94 122 190 20 66 21 88 16 205 -13 274 -94
501 -234 655 -57 63 -155 121 -202 121 -14 -1 -43 -10 -63 -20z"/>
<path d="M2796 8577 c-90 -22 -190 -177 -241 -372 -36 -141 -53 -405 -25 -405
12 0 64 132 90 225 33 120 127 368 177 469 24 48 43 89 41 90 -2 2 -21 -2 -42
-7z"/>
<path d="M2526 8534 c-86 -31 -134 -87 -187 -220 -79 -198 -80 -482 -2 -719 9
-27 22 -59 29 -69 12 -17 13 -11 10 45 -2 35 1 147 5 249 14 322 64 505 190
698 24 36 17 39 -45 16z"/>
<path d="M2229 8411 c-52 -33 -113 -118 -134 -188 -37 -120 -27 -277 25 -411
51 -133 55 -126 55 101 1 156 5 217 18 270 23 92 78 228 94 234 7 3 13 9 13
14 0 16 -26 9 -71 -20z"/>
<path d="M2942 8104 c-75 -78 -196 -255 -210 -307 -6 -20 -24 -48 -41 -63 -40
-33 -50 -85 -26 -130 10 -18 24 -35 32 -38 31 -12 103 45 118 95 6 18 -2 34
-39 83 -9 13 105 209 195 333 32 45 59 84 59 87 0 20 -33 -3 -88 -60z"/>
<path d="M2904 7561 c-151 -77 -212 -203 -200 -415 13 -234 17 -266 36 -266 9
0 25 9 36 21 22 25 51 22 139 -11 43 -16 83 -23 140 -24 70 -1 88 3 147 31
131 62 202 165 217 314 9 84 14 93 53 113 41 21 34 43 -24 72 -29 15 -89 53
-133 85 -114 82 -162 102 -265 107 -79 3 -89 2 -146 -27z m161 -146 c70 -69
-16 -176 -105 -130 -61 32 -65 100 -7 135 44 27 83 25 112 -5z m244 -136 c45
-128 -72 -292 -224 -315 -101 -15 -233 58 -269 147 -19 48 -12 66 13 29 37
-55 74 -89 122 -110 67 -28 121 -28 185 -1 95 41 144 116 146 222 1 66 10 75
27 28z"/>
<path d="M3190 6720 c-136 -13 -201 -26 -259 -51 -107 -46 -50 -57 182 -34
100 10 259 21 352 24 159 6 170 7 170 25 0 13 -10 22 -30 28 -45 13 -307 18
-415 8z"/>
<path d="M3655 6500 c-3 -5 -1 -10 4 -10 6 0 11 5 11 10 0 6 -2 10 -4 10 -3 0
-8 -4 -11 -10z"/>
<path d="M3560 6474 c-57 -20 -61 -23 -30 -23 38 1 120 32 104 40 -5 3 -38 -5
-74 -17z"/>
<path d="M6656 8518 c11 -37 43 -94 43 -78 1 18 -36 100 -44 100 -4 0 -3 -10
1 -22z"/>
<path d="M4358 6789 c-26 -19 -58 -71 -58 -93 0 -6 12 7 26 29 15 22 36 50 47
63 25 27 20 28 -15 1z"/>
<path d="M4700 6376 c0 -2 8 -10 18 -17 15 -13 16 -12 3 4 -13 16 -21 21 -21
13z"/>
<path d="M4951 6314 c7 -9 30 -23 51 -31 21 -8 38 -18 38 -22 0 -10 41 -29
115 -52 163 -53 366 -91 535 -101 19 -1 38 -7 42 -13 4 -5 8 1 8 14 0 13 -3
21 -7 18 -3 -4 -12 -2 -20 4 -10 9 -13 8 -13 -2 0 -9 -3 -10 -8 -4 -4 6 -18
11 -32 12 -95 6 -238 36 -405 86 -38 11 -77 21 -85 22 -8 1 -22 5 -30 8 -8 3
-41 15 -74 27 -32 11 -68 27 -80 35 -11 8 -27 15 -34 15 -12 0 -12 -3 -1 -16z"/>
<path d="M5821 6136 c-9 -22 -9 -32 0 -40 9 -8 10 -8 5 2 -4 7 -2 19 4 27 7 8
10 20 7 27 -3 8 -10 1 -16 -16z"/>
<path d="M5768 6123 c-10 -2 -18 -9 -18 -14 0 -13 43 -5 48 9 4 12 0 13 -30 5z"/>
<path d="M4951 5761 c-12 -16 -21 -42 -20 -58 l1 -28 9 31 c5 17 18 39 29 49
21 19 26 35 11 35 -5 0 -19 -13 -30 -29z"/>
<path d="M4870 5602 c0 -6 5 -14 10 -17 6 -3 10 -15 10 -26 0 -10 5 -19 10
-19 6 0 10 14 10 32 0 17 -3 28 -7 25 -3 -4 -12 -2 -20 4 -9 8 -13 8 -13 1z"/>
<path d="M4689 5496 c-105 -43 -144 -87 -107 -124 9 -9 6 -12 -15 -12 -15 0
-27 -4 -27 -8 0 -5 -6 -9 -12 -10 -7 0 -59 -9 -116 -20 -125 -24 -221 -23
-357 4 -39 8 -135 51 -158 71 -9 9 -20 13 -24 10 -22 -23 137 -111 232 -128
58 -11 269 -7 328 5 15 4 58 18 95 32 37 14 90 32 117 41 68 21 99 38 146 80
43 39 48 57 20 73 -29 15 -60 12 -122 -14z"/>
<path d="M3790 5482 c1 -14 59 -77 65 -71 3 4 -10 22 -30 42 -19 19 -35 32
-35 29z"/>
<path d="M5200 5920 c0 -31 55 -169 101 -252 49 -89 147 -208 225 -272 83 -68
205 -129 266 -132 26 -1 51 -5 56 -8 15 -9 82 14 82 29 0 10 -16 13 -63 13
-35 -1 -79 5 -100 11 -20 7 -41 10 -47 6 -5 -3 -10 -2 -10 3 0 5 -31 24 -70
43 -38 18 -70 37 -70 41 0 4 -6 8 -14 8 -8 0 -16 7 -20 15 -3 8 -17 20 -31 27
-14 6 -25 15 -25 21 0 5 -12 21 -28 35 -30 30 -131 180 -151 227 -7 17 -17 37
-22 45 -5 8 -14 26 -19 40 -6 14 -15 33 -20 42 -6 10 -10 26 -10 37 0 10 -7
24 -15 31 -13 10 -15 9 -15 -10z"/>
<path d="M5827 4857 c-4 -10 -7 -26 -7 -35 1 -15 2 -15 11 1 6 10 9 25 7 35
-3 16 -4 15 -11 -1z"/>
<path d="M5834 4692 c1 -68 7 -116 14 -125 7 -8 10 -22 6 -31 -3 -9 -1 -16 5
-16 6 0 8 -7 5 -15 -4 -8 -1 -15 5 -15 6 0 8 -7 5 -15 -4 -8 -1 -15 5 -15 6 0
8 -7 5 -15 -4 -8 -2 -15 3 -15 5 0 10 -7 11 -15 1 -8 3 -22 4 -30 1 -8 5 -12
9 -9 9 5 5 35 -27 209 -13 72 -25 145 -27 163 -2 18 -9 38 -15 44 -8 8 -10
-18 -8 -100z"/>
<path d="M1956 6043 c-6 -14 -5 -15 5 -6 7 7 10 15 7 18 -3 3 -9 -2 -12 -12z"/>
<path d="M6856 4905 c4 -8 8 -15 10 -15 2 0 4 7 4 15 0 8 -4 15 -10 15 -5 0
-7 -7 -4 -15z"/>
<path d="M2121 6034 c0 -11 3 -14 6 -6 3 7 2 16 -1 19 -3 4 -6 -2 -5 -13z"/>
<path d="M2516 5763 c74 -115 219 -271 309 -333 132 -91 341 -169 497 -185 29
-4 68 -8 86 -11 38 -5 226 22 253 37 10 5 19 14 19 18 0 12 -30 22 -42 15 -19
-12 -134 -34 -183 -36 -62 -1 -163 9 -224 23 -25 6 -55 13 -66 15 -66 10 -235
86 -309 137 -122 86 -238 195 -302 285 -45 61 -73 87 -38 35z"/>
<path d="M2334 4935 c-8 -34 -7 -52 3 -77 8 -18 17 -28 22 -22 9 10 2 144 -8
144 -4 0 -11 -20 -17 -45z"/>
<path d="M2347 4803 c-14 -13 -7 -63 8 -63 10 0 15 11 15 35 0 33 -8 43 -23
28z"/>
<path d="M2342 4683 c4 -39 28 -42 28 -4 0 21 -5 31 -16 31 -11 0 -14 -8 -12
-27z"/>
<path d="M2000 4689 c0 -5 5 -7 10 -4 6 3 10 8 10 11 0 2 -4 4 -10 4 -5 0 -10
-5 -10 -11z"/>
<path d="M2339 4603 c-1 -5 -3 -25 -4 -45 -2 -41 19 -60 29 -25 11 41 7 77 -9
77 -8 0 -16 -3 -16 -7z"/>
<path d="M2321 4484 c2 -11 -3 -30 -11 -44 -8 -14 -15 -34 -16 -45 -6 -72 -9
-91 -19 -97 -7 -5 -6 -14 3 -29 10 -16 11 -24 3 -29 -12 -7 -5 -40 9 -40 6 0
21 97 23 160 1 14 7 30 14 35 17 14 21 97 4 103 -8 3 -12 -3 -10 -14z"/>
<path d="M2280 4145 c0 -8 5 -15 10 -15 6 0 10 7 10 15 0 8 -4 15 -10 15 -5 0
-10 -7 -10 -15z"/>
<path d="M2300 4059 c0 -5 5 -7 10 -4 6 3 10 8 10 11 0 2 -4 4 -10 4 -5 0 -10
-5 -10 -11z"/>
<path d="M2397 5513 c-26 -7 -17 -38 12 -37 18 1 21 -3 17 -20 -3 -12 -6 -24
-6 -28 0 -4 -10 -8 -22 -10 -16 -2 -32 -20 -53 -60 -29 -55 -77 -109 -120
-135 -76 -45 -154 -66 -194 -52 l-26 9 28 -25 c26 -23 65 -36 54 -17 -3 4 14
8 38 8 52 2 132 43 186 97 40 41 114 147 143 206 15 32 15 36 0 53 -17 18 -24
20 -57 11z"/>
<path d="M7490 5113 c0 -75 114 -150 245 -159 79 -6 142 6 131 25 -3 5 -43 19
-88 30 -155 41 -210 63 -249 98 l-39 35 0 -29z"/>
<path d="M7720 4790 c0 -5 4 -10 9 -10 6 0 13 5 16 10 3 6 -1 10 -9 10 -9 0
-16 -4 -16 -10z"/>
<path d="M7386 4769 c-19 -15 -18 -16 13 -22 18 -4 37 -4 42 -1 5 3 9 1 9 -5
0 -7 8 -7 25 -1 14 5 25 6 25 2 0 -4 11 -8 25 -8 14 -1 25 3 25 8 0 6 6 6 14
-1 8 -7 17 -8 20 -3 3 5 18 9 33 10 43 2 86 17 91 30 3 9 -7 11 -35 8 -21 -2
-40 -5 -43 -6 -3 -1 -30 -1 -60 0 -151 6 -164 5 -184 -11z"/>
<path d="M5168 5373 c7 -3 16 -2 19 1 4 3 -2 6 -13 5 -11 0 -14 -3 -6 -6z"/>
<path d="M5225 5299 c-9 -17 -15 -35 -13 -41 6 -16 48 32 48 54 0 28 -18 21
-35 -13z"/>
<path d="M4845 5019 c-4 -6 -5 -12 -2 -15 2 -3 7 2 10 11 7 17 1 20 -8 4z"/>
<path d="M4755 4985 c-43 -11 -46 -13 -20 -15 44 -3 70 1 73 11 2 5 8 7 13 3
5 -3 9 0 9 5 0 13 -10 13 -75 -4z"/>
<path d="M4668 4963 c6 -2 18 -2 25 0 6 3 1 5 -13 5 -14 0 -19 -2 -12 -5z"/>
<path d="M5492 5120 c0 -14 2 -19 5 -12 2 6 2 18 0 25 -3 6 -5 1 -5 -13z"/>
<path d="M5190 4813 c-21 -22 -22 -25 -4 -15 24 13 51 42 38 42 -5 0 -20 -12
-34 -27z"/>
<path d="M5540 4730 c-19 -17 -39 -30 -44 -30 -6 0 -5 -5 1 -11 13 -13 58 13
74 43 16 31 6 30 -31 -2z"/>
<path d="M5450 4671 c0 -5 5 -13 10 -16 6 -3 10 -2 10 4 0 5 -4 13 -10 16 -5
3 -10 2 -10 -4z"/>
<path d="M4383 4773 c15 -2 39 -2 55 0 15 2 2 4 -28 4 -30 0 -43 -2 -27 -4z"/>
<path d="M4820 8115 c-5 -14 -10 -32 -10 -39 0 -24 -38 -62 -79 -81 -49 -22
-53 -47 -11 -65 17 -7 53 -39 81 -71 28 -33 55 -59 60 -59 4 0 24 25 43 55 23
36 49 61 76 75 22 11 40 24 40 28 -1 17 -18 32 -53 47 -30 12 -43 27 -65 73
-32 67 -65 82 -82 37z"/>
<path d="M2856 4418 c-23 -33 -20 -74 6 -92 29 -21 31 -20 67 10 37 31 39 47
6 79 -30 31 -59 32 -79 3z"/>
<path d="M3104 4415 c-21 -33 -6 -71 31 -81 33 -8 55 11 55 47 0 56 -57 79
-86 34z"/>
<path d="M6028 3020 c-61 -11 -155 -54 -191 -88 -85 -81 -116 -222 -71 -317
21 -44 84 -108 128 -129 18 -9 92 -29 164 -45 72 -16 140 -34 151 -40 50 -27
28 -93 -36 -110 -75 -20 -208 17 -287 81 l-39 31 -16 -21 c-56 -75 -88 -116
-98 -127 -20 -21 -16 -29 25 -62 96 -77 216 -117 357 -117 81 0 111 4 156 22
149 60 228 207 184 345 -35 112 -117 170 -292 208 -121 26 -178 54 -178 89 0
36 56 70 116 70 61 0 160 -31 204 -64 l34 -26 12 22 c6 13 32 53 56 90 25 37
42 71 39 77 -13 20 -113 70 -190 95 -80 27 -140 31 -228 16z"/>
<path d="M9055 3017 c-100 -34 -180 -99 -210 -171 -55 -130 -2 -286 116 -347
21 -10 88 -32 149 -49 167 -46 197 -67 165 -117 -48 -72 -184 -57 -319 36 -45
31 -66 38 -66 23 0 -5 -28 -42 -62 -82 l-61 -74 39 -34 c105 -91 251 -139 394
-129 104 7 160 26 225 75 105 78 140 225 82 344 -36 73 -77 100 -235 149 -218
68 -260 101 -192 149 27 19 41 22 95 18 66 -6 164 -44 200 -78 20 -19 21 -19
47 14 43 53 108 149 108 157 0 12 -121 77 -186 99 -76 27 -233 36 -289 17z"/>
<path d="M7815 3013 c-71 -2 -134 -8 -139 -13 -6 -6 0 -21 18 -39 l29 -30 6
-288 6 -288 29 -55 c38 -75 89 -135 139 -164 103 -59 235 -79 350 -52 148 35
245 112 288 229 21 58 23 81 27 342 l3 280 26 27 c14 14 22 31 19 37 -5 7 -59
11 -152 11 -160 0 -174 -6 -135 -57 21 -26 22 -32 15 -257 -6 -210 -8 -236
-29 -282 -54 -122 -219 -140 -308 -34 -40 47 -46 86 -49 332 l-3 226 24 26
c20 21 22 28 11 41 -7 8 -20 14 -29 13 -9 -1 -74 -4 -146 -5z"/>
<path d="M1402 2994 c-8 -14 -4 -24 19 -45 l29 -27 0 -380 0 -380 -27 -32
c-26 -31 -26 -33 -8 -46 14 -10 54 -14 146 -14 70 0 134 3 143 6 21 8 20 33
-1 57 -13 13 -19 42 -23 98 l-5 79 91 0 c115 0 183 13 259 49 108 50 160 111
189 223 11 44 12 72 5 125 -18 127 -81 211 -197 266 l-67 32 -272 3 c-251 3
-272 2 -281 -14z m507 -223 c55 -29 74 -63 69 -123 -4 -36 -13 -57 -34 -79
-35 -36 -75 -48 -181 -51 l-83 -3 0 137 0 138 95 0 c75 0 104 -4 134 -19z"/>
<path d="M2432 2998 c-9 -9 -6 -18 16 -41 l27 -28 5 -283 5 -282 38 -76 c70
-142 199 -218 373 -218 201 0 369 122 410 299 10 39 14 135 14 317 0 248 1
262 20 279 44 40 30 45 -135 45 -168 0 -188 -7 -146 -49 20 -20 21 -31 21
-273 l0 -251 -26 -45 c-57 -98 -206 -111 -286 -26 -51 55 -58 95 -58 346 0
214 1 232 20 255 11 14 17 29 14 34 -8 14 -298 11 -312 -3z"/>
<path d="M3592 2999 c-10 -11 -6 -18 18 -40 l30 -28 0 -386 c0 -377 -1 -388
-21 -416 -37 -53 -25 -59 120 -59 71 0 136 3 145 6 22 8 20 31 -4 61 -17 22
-20 41 -20 119 l0 94 68 0 67 -1 78 -115 c42 -63 77 -124 77 -135 0 -17 8 -19
108 -21 146 -3 181 -2 188 5 3 3 -16 34 -43 69 -26 35 -75 102 -107 151 l-60
87 25 17 c13 9 44 37 69 62 117 119 104 331 -26 450 -87 80 -107 84 -424 89
-213 3 -278 1 -288 -9z m536 -245 c37 -31 42 -40 42 -78 0 -86 -54 -116 -209
-116 l-91 0 0 99 c0 55 -3 106 -6 115 -5 14 8 16 108 16 l114 0 42 -36z"/>
<path d="M4664 2995 c-4 -10 3 -26 20 -44 l26 -27 0 -381 c0 -373 0 -383 -22
-418 -17 -31 -19 -38 -7 -46 8 -5 76 -9 152 -9 153 0 166 6 129 58 -17 23 -21
46 -23 123 l-2 94 70 3 71 3 23 -38 c13 -21 45 -68 71 -104 26 -37 54 -81 62
-99 l13 -32 141 -4 c94 -2 143 0 148 7 3 6 -14 32 -38 57 -47 49 -178 228
-178 243 0 5 12 15 28 23 43 23 99 86 122 139 75 170 -11 368 -189 439 -52 21
-75 22 -333 26 -251 3 -279 2 -284 -13z m493 -214 c58 -16 96 -60 95 -111 -2
-95 -54 -124 -207 -114 l-105 7 0 111 0 111 90 3 c49 2 106 -2 127 -7z"/>
<path d="M6690 2994 c0 -9 9 -27 20 -41 18 -24 19 -42 18 -411 0 -308 -3 -394
-14 -421 -8 -19 -11 -38 -6 -43 5 -5 176 -5 381 -2 335 7 371 9 364 23 -4 9
-9 59 -11 111 l-3 95 -245 -3 -244 -3 0 70 0 71 208 2 207 3 3 91 c3 88 2 92
-20 98 -13 3 -107 6 -210 6 l-188 0 0 78 0 77 235 0 236 0 3 70 c2 40 10 84
19 102 10 18 17 34 17 38 0 3 -173 5 -385 5 -345 0 -385 -2 -385 -16z"/>
<path d="M5375 1732 c-44 -27 -85 -80 -85 -108 0 -62 70 -156 126 -170 40 -10
134 40 134 71 0 20 -69 29 -89 11 -15 -14 -20 -14 -46 0 -71 37 -84 77 -38
114 21 16 35 19 67 15 23 -3 59 -2 81 4 35 8 37 10 18 16 -13 4 -23 11 -23 15
0 13 -46 38 -81 45 -24 4 -43 0 -64 -13z"/>
<path d="M8037 1735 c-21 -7 -40 -15 -42 -17 -80 -81 -85 -147 -17 -220 58
-63 138 -61 207 6 40 38 45 47 45 87 0 38 -6 53 -37 89 -32 37 -85 71 -110 70
-4 -1 -25 -7 -46 -15z m97 -96 c32 -38 33 -63 1 -94 -29 -30 -67 -32 -105 -5
-37 27 -45 52 -26 89 18 33 28 39 73 40 23 1 38 -7 57 -30z"/>
<path d="M2190 1595 c0 -130 2 -146 16 -141 9 3 24 6 34 6 14 0 18 7 16 32 -1
31 2 33 44 43 55 12 72 22 94 57 15 23 16 33 7 61 -21 61 -52 81 -137 85 l-74
4 0 -147z m128 63 c32 -32 1 -75 -42 -58 -25 9 -36 46 -19 63 11 11 48 8 61
-5z"/>
<path d="M2465 1643 c5 -63 13 -109 24 -128 20 -35 87 -76 110 -68 31 11 81
54 96 83 16 30 19 107 8 173 -5 34 -9 38 -32 35 -26 -3 -26 -4 -31 -103 l-5
-100 -41 -3 c-52 -4 -56 5 -63 118 l-6 85 -33 3 -34 3 7 -98z"/>
<path d="M2783 1595 c-1 -127 1 -146 14 -141 8 3 23 6 34 6 14 0 19 7 20 28 0
15 4 36 9 47 7 18 11 16 52 -27 35 -38 50 -48 76 -48 40 0 40 8 2 45 -38 36
-38 55 0 77 42 24 41 66 -4 115 -32 35 -35 37 -117 41 l-84 4 -2 -147z m156
57 c15 -28 -2 -44 -53 -49 -49 -6 -52 -2 -40 45 5 18 13 22 45 22 27 0 41 -5
48 -18z"/>
<path d="M3084 1701 c3 -19 0 -80 -6 -134 -12 -110 -7 -125 35 -106 21 10 27
19 27 45 0 18 4 35 9 38 4 3 32 -19 60 -49 45 -47 55 -53 72 -45 24 13 24 14
-5 57 -26 38 -25 47 16 104 14 21 4 62 -25 93 -19 21 -32 25 -106 29 l-83 4 6
-36z m143 -46 c7 -20 -24 -55 -48 -55 -21 0 -43 35 -35 56 8 20 75 19 83 -1z"/>
<path d="M3390 1722 c-28 -13 -36 -24 -38 -50 -4 -41 8 -56 76 -94 65 -37 57
-53 -24 -52 -45 0 -54 -3 -54 -18 0 -9 14 -25 30 -33 63 -33 155 22 148 89 -3
26 -11 34 -55 55 -29 14 -53 31 -53 38 0 13 36 26 61 23 46 -7 56 29 14 48
-36 16 -64 15 -105 -6z"/>
<path d="M3605 1733 l-30 -4 3 -117 c2 -64 5 -122 7 -129 2 -6 25 -14 52 -18
26 -3 65 -8 86 -10 35 -5 37 -4 37 23 0 40 -17 52 -77 52 -45 0 -53 3 -53 19
0 15 10 20 60 25 55 6 60 9 60 31 0 24 -3 25 -59 25 -45 0 -60 4 -65 16 -9 23
-8 23 62 30 60 7 62 8 62 35 0 29 -1 29 -57 27 -32 0 -71 -3 -88 -5z"/>
<path d="M3808 1735 c-7 -7 41 -150 77 -230 26 -60 46 -69 69 -32 27 41 98
237 92 253 -9 23 -60 14 -65 -11 -6 -37 -42 -125 -50 -125 -9 0 -45 79 -56
123 -6 21 -13 27 -34 27 -15 0 -30 -2 -33 -5z"/>
<path d="M4120 1596 l0 -144 85 1 86 2 -3 35 -3 35 -47 -3 c-46 -4 -48 -3 -48
22 0 24 3 26 46 26 44 0 45 1 42 28 -3 24 -7 27 -45 30 -34 3 -43 7 -43 22 0
16 9 19 58 22 56 3 57 3 60 36 l3 32 -95 0 -96 0 0 -144z"/>
<path d="M4374 1727 c-2 -7 -3 -71 -2 -143 l3 -129 27 -3 c25 -3 27 0 33 43 9
54 19 54 60 -3 29 -40 47 -48 79 -36 13 5 12 11 -8 37 -37 52 -38 64 -6 101
17 18 30 42 30 52 0 33 -42 74 -85 84 -59 14 -125 12 -131 -3z m143 -73 c8
-21 -9 -48 -31 -52 -22 -5 -56 26 -56 50 0 14 8 18 40 18 28 0 43 -5 47 -16z"/>
<path d="M4695 1663 c-20 -43 -43 -105 -50 -138 -11 -53 -11 -61 3 -72 24 -20
32 -16 48 22 14 33 45 55 79 55 8 0 22 -16 31 -36 16 -33 57 -64 69 -52 3 3 0
41 -7 84 -11 65 -17 81 -35 89 -13 5 -27 23 -33 40 -40 108 -58 110 -105 8z
m60 -73 c3 -5 -1 -10 -9 -10 -9 0 -16 5 -16 10 0 6 4 10 9 10 6 0 13 -4 16
-10z"/>
<path d="M5141 1731 c-10 -6 -12 -19 -8 -41 7 -34 0 -80 -13 -80 -4 0 -28 27
-54 60 -41 53 -52 60 -82 60 l-34 0 0 -134 c0 -113 2 -135 16 -140 31 -12 34
-5 34 82 1 81 2 85 14 57 16 -38 133 -135 162 -135 20 0 21 4 21 140 -1 135
-1 140 -21 140 -12 0 -27 -4 -35 -9z"/>
<path d="M6065 1732 c-3 -3 -5 -68 -5 -144 l0 -138 29 0 c17 0 31 6 35 16 3 9
6 71 6 139 l0 123 -30 4 c-17 3 -32 2 -35 0z"/>
<path d="M6220 1600 c0 -77 3 -140 8 -140 4 0 17 -3 30 -6 21 -6 22 -4 22 70
0 42 3 76 8 75 4 0 34 -31 67 -70 41 -48 66 -69 82 -69 23 0 23 1 23 140 l0
140 -31 0 -32 0 7 -54 c10 -89 2 -91 -71 -15 -45 47 -74 69 -90 69 l-23 0 0
-140z"/>
<path d="M6726 1622 c-9 -147 -4 -172 35 -172 l29 0 0 75 c0 42 4 75 10 75 5
0 19 -18 30 -40 11 -22 27 -40 35 -40 8 0 29 21 47 48 l33 47 3 -76 c3 -77 3
-77 32 -81 17 -3 32 -2 35 0 3 3 5 68 5 144 l0 138 -30 0 c-16 0 -30 -3 -30
-7 0 -5 -19 -30 -41 -56 l-41 -48 -52 55 c-31 34 -60 56 -73 56 -19 0 -21 -7
-27 -118z"/>
<path d="M7184 1721 c-43 -26 -84 -82 -84 -115 0 -79 72 -151 150 -150 79 1
170 82 170 151 0 25 -40 78 -81 109 -41 30 -110 32 -155 5z m127 -80 c33 -33
31 -50 -9 -93 -32 -35 -62 -35 -101 -2 -39 32 -40 67 -5 99 37 34 78 33 115
-4z"/>
<path d="M7470 1705 c0 -33 2 -35 35 -35 l35 0 0 -74 c0 -114 7 -136 41 -136
l29 0 0 105 0 105 45 0 c38 0 45 3 45 19 0 49 -6 51 -121 51 l-109 0 0 -35z"/>
<path d="M8317 1680 c-3 -33 -3 -96 0 -140 l6 -80 28 0 29 0 0 70 c0 39 2 70
5 70 3 0 38 -34 78 -75 59 -61 76 -73 95 -69 21 6 22 10 22 145 l0 139 -35 0
-35 0 0 -72 0 -72 -73 72 c-43 43 -81 72 -93 72 -19 0 -22 -8 -27 -60z"/>
<path d="M5618 1723 c-2 -5 -2 -62 1 -128 l6 -120 93 -3 c70 -2 92 0 92 10 0
29 -20 41 -76 47 -50 5 -59 9 -59 26 0 17 8 21 55 25 40 4 56 9 58 21 2 13 -9
18 -53 24 -44 5 -55 10 -55 24 0 15 11 20 52 25 56 8 78 20 78 42 0 11 -21 14
-94 14 -52 0 -96 -3 -98 -7z"/>
<path d="M7778 1723 c-2 -5 -2 -65 0 -135 l3 -128 30 0 29 0 0 119 c0 66 3
126 6 135 5 13 -1 16 -29 16 -20 0 -37 -3 -39 -7z"/>
<path d="M1424 1615 c-13 -54 -6 -56 290 -53 l271 3 0 35 0 35 -277 3 -278 2
-6 -25z"/>
<path d="M8840 1611 c0 -52 4 -53 312 -44 l283 8 0 30 0 30 -297 3 -298 2 0
-29z"/>
</g>
</svg>
